<?xml version="1.0" encoding="UTF-8" standalone="no"?>
<!DOCTYPE svg PUBLIC "-//W3C//DTD SVG 1.1//EN"
 "http://www.w3.org/Graphics/SVG/1.1/DTD/svg11.dtd">
<!-- Generated by graphviz version 12.2.1 (20241206.2353)
 -->
<!-- Pages: 1 -->
<svg width="1146pt" height="648pt"
 viewBox="0.00 0.00 1145.85 648.00" xmlns="http://www.w3.org/2000/svg" xmlns:xlink="http://www.w3.org/1999/xlink">
<g id="graph0" class="graph" transform="scale(0.987805 0.987805) rotate(0) translate(4 652)">
<polygon fill="white" stroke="none" points="-4,4 -4,-652 1156,-652 1156,4 -4,4"/>
<!-- Industrial Design -->
<g id="node1" class="node">
<title>Industrial Design</title>
<ellipse fill="lightblue" stroke="black" cx="576" cy="-324" rx="54" ry="54"/>
<text text-anchor="middle" x="576" y="-318.95" font-family="Times,serif" font-size="14.00">Industrial Design</text>
</g>
<!-- Consumer Electronics -->
<g id="node2" class="node">
<title>Consumer Electronics</title>
<ellipse fill="lightgreen" stroke="black" cx="1114.27" cy="-352.37" rx="28.8" ry="28.8"/>
<text text-anchor="middle" x="1114.27" y="-349.65" font-family="Times,serif" font-size="8.00">Consumer Electronics</text>
</g>
<!-- Industrial Design&#45;&gt;Consumer Electronics -->
<g id="edge1" class="edge">
<title>Industrial Design&#45;&gt;Consumer Electronics</title>
<path fill="none" stroke="black" d="M630.08,-326.85C737.97,-332.54 977.8,-345.18 1073.6,-350.23"/>
<polygon fill="black" stroke="black" points="1073.39,-353.72 1083.56,-350.75 1073.76,-346.73 1073.39,-353.72"/>
</g>
<!-- Automotive -->
<g id="node3" class="node">
<title>Automotive</title>
<ellipse fill="lightgreen" stroke="black" cx="1093.58" cy="-408.03" rx="28.8" ry="28.8"/>
<text text-anchor="middle" x="1093.58" y="-405.31" font-family="Times,serif" font-size="8.00">Automotive</text>
</g>
<!-- Industrial Design&#45;&gt;Automotive -->
<g id="edge2" class="edge">
<title>Industrial Design&#45;&gt;Automotive</title>
<path fill="none" stroke="black" d="M629.44,-332.68C733.49,-349.57 961.14,-386.53 1053.48,-401.52"/>
<polygon fill="black" stroke="black" points="1052.89,-404.97 1063.32,-403.12 1054.01,-398.06 1052.89,-404.97"/>
</g>
<!-- Medical Devices -->
<g id="node4" class="node">
<title>Medical Devices</title>
<ellipse fill="lightgreen" stroke="black" cx="1053.01" cy="-460.46" rx="28.8" ry="28.8"/>
<text text-anchor="middle" x="1053.01" y="-457.74" font-family="Times,serif" font-size="8.00">Medical Devices</text>
</g>
<!-- Industrial Design&#45;&gt;Medical Devices -->
<g id="edge3" class="edge">
<title>Industrial Design&#45;&gt;Medical Devices</title>
<path fill="none" stroke="black" d="M627.96,-338.86C724.22,-366.4 928.29,-424.78 1013.9,-449.28"/>
<polygon fill="black" stroke="black" points="1012.91,-452.63 1023.48,-452.02 1014.83,-445.9 1012.91,-452.63"/>
</g>
<!-- Furniture -->
<g id="node5" class="node">
<title>Furniture</title>
<ellipse fill="lightgreen" stroke="black" cx="994.11" cy="-507.65" rx="28.8" ry="28.8"/>
<text text-anchor="middle" x="994.11" y="-504.92" font-family="Times,serif" font-size="8.00">Furniture</text>
</g>
<!-- Industrial Design&#45;&gt;Furniture -->
<g id="edge4" class="edge">
<title>Industrial Design&#45;&gt;Furniture</title>
<path fill="none" stroke="black" d="M625.6,-345.79C710.44,-383.05 881.54,-458.21 956.96,-491.33"/>
<polygon fill="black" stroke="black" points="955.43,-494.48 965.99,-495.3 958.24,-488.07 955.43,-494.48"/>
</g>
<!-- Packaging -->
<g id="node6" class="node">
<title>Packaging</title>
<ellipse fill="lightgreen" stroke="black" cx="919.13" cy="-547.77" rx="28.8" ry="28.8"/>
<text text-anchor="middle" x="919.13" y="-545.05" font-family="Times,serif" font-size="8.00">Packaging</text>
</g>
<!-- Industrial Design&#45;&gt;Packaging -->
<g id="edge5" class="edge">
<title>Industrial Design&#45;&gt;Packaging</title>
<path fill="none" stroke="black" d="M621.56,-353.71C691.47,-399.31 823.59,-485.47 885.51,-525.85"/>
<polygon fill="black" stroke="black" points="883.27,-528.57 893.56,-531.1 887.09,-522.7 883.27,-528.57"/>
</g>
<!-- Home Appliances -->
<g id="node7" class="node">
<title>Home Appliances</title>
<ellipse fill="lightgreen" stroke="black" cx="830.97" cy="-579.31" rx="28.8" ry="28.8"/>
<text text-anchor="middle" x="830.97" y="-576.59" font-family="Times,serif" font-size="8.00">Home Appliances</text>
</g>
<!-- Industrial Design&#45;&gt;Home Appliances -->
<g id="edge6" class="edge">
<title>Industrial Design&#45;&gt;Home Appliances</title>
<path fill="none" stroke="black" d="M614.45,-362.5C666.05,-414.17 756.52,-504.76 802.46,-550.77"/>
<polygon fill="black" stroke="black" points="799.89,-553.14 809.44,-557.75 804.85,-548.2 799.89,-553.14"/>
</g>
<!-- Fashion and Accessories -->
<g id="node8" class="node">
<title>Fashion and Accessories</title>
<ellipse fill="lightgreen" stroke="black" cx="733" cy="-601.03" rx="28.8" ry="28.8"/>
<text text-anchor="middle" x="733" y="-598.3" font-family="Times,serif" font-size="8.00">Fashion and Accessories</text>
</g>
<!-- Industrial Design&#45;&gt;Fashion and Accessories -->
<g id="edge7" class="edge">
<title>Industrial Design&#45;&gt;Fashion and Accessories</title>
<path fill="none" stroke="black" d="M602.81,-371.31C634.13,-426.56 685.2,-516.68 713.16,-566.02"/>
<polygon fill="black" stroke="black" points="710.04,-567.61 718.02,-574.58 716.13,-564.16 710.04,-567.61"/>
</g>
<!-- Sporting Goods -->
<g id="node9" class="node">
<title>Sporting Goods</title>
<ellipse fill="lightgreen" stroke="black" cx="629.02" cy="-612.1" rx="28.8" ry="28.8"/>
<text text-anchor="middle" x="629.02" y="-609.37" font-family="Times,serif" font-size="8.00">Sporting Goods</text>
</g>
<!-- Industrial Design&#45;&gt;Sporting Goods -->
<g id="edge8" class="edge">
<title>Industrial Design&#45;&gt;Sporting Goods</title>
<path fill="none" stroke="black" d="M585.85,-377.51C596.24,-433.98 612.37,-521.64 621.69,-572.29"/>
<polygon fill="black" stroke="black" points="618.22,-572.73 623.47,-581.93 625.1,-571.47 618.22,-572.73"/>
</g>
<!-- Toy Manufacturing -->
<g id="node10" class="node">
<title>Toy Manufacturing</title>
<ellipse fill="lightgreen" stroke="black" cx="522.98" cy="-612.1" rx="28.8" ry="28.8"/>
<text text-anchor="middle" x="522.98" y="-609.37" font-family="Times,serif" font-size="8.00">Toy Manufacturing</text>
</g>
<!-- Industrial Design&#45;&gt;Toy Manufacturing -->
<g id="edge9" class="edge">
<title>Industrial Design&#45;&gt;Toy Manufacturing</title>
<path fill="none" stroke="black" d="M566.15,-377.51C555.76,-433.98 539.63,-521.64 530.31,-572.29"/>
<polygon fill="black" stroke="black" points="526.9,-571.47 528.53,-581.93 533.78,-572.73 526.9,-571.47"/>
</g>
<!-- Aerospace -->
<g id="node11" class="node">
<title>Aerospace</title>
<ellipse fill="lightgreen" stroke="black" cx="419" cy="-601.03" rx="28.8" ry="28.8"/>
<text text-anchor="middle" x="419" y="-598.3" font-family="Times,serif" font-size="8.00">Aerospace</text>
</g>
<!-- Industrial Design&#45;&gt;Aerospace -->
<g id="edge10" class="edge">
<title>Industrial Design&#45;&gt;Aerospace</title>
<path fill="none" stroke="black" d="M549.19,-371.31C517.87,-426.56 466.8,-516.68 438.84,-566.02"/>
<polygon fill="black" stroke="black" points="435.87,-564.16 433.98,-574.58 441.96,-567.61 435.87,-564.16"/>
</g>
<!-- Architecture -->
<g id="node12" class="node">
<title>Architecture</title>
<ellipse fill="lightgreen" stroke="black" cx="321.03" cy="-579.31" rx="28.8" ry="28.8"/>
<text text-anchor="middle" x="321.03" y="-576.59" font-family="Times,serif" font-size="8.00">Architecture</text>
</g>
<!-- Industrial Design&#45;&gt;Architecture -->
<g id="edge11" class="edge">
<title>Industrial Design&#45;&gt;Architecture</title>
<path fill="none" stroke="black" d="M537.55,-362.5C485.95,-414.17 395.48,-504.76 349.54,-550.77"/>
<polygon fill="black" stroke="black" points="347.15,-548.2 342.56,-557.75 352.11,-553.14 347.15,-548.2"/>
</g>
<!-- Entertainment/Concept Art -->
<g id="node13" class="node">
<title>Entertainment/Concept Art</title>
<ellipse fill="lightgreen" stroke="black" cx="232.87" cy="-547.77" rx="28.8" ry="28.8"/>
<text text-anchor="middle" x="232.87" y="-545.05" font-family="Times,serif" font-size="8.00">Entertainment/Concept Art</text>
</g>
<!-- Industrial Design&#45;&gt;Entertainment/Concept Art -->
<g id="edge12" class="edge">
<title>Industrial Design&#45;&gt;Entertainment/Concept Art</title>
<path fill="none" stroke="black" d="M530.44,-353.71C460.53,-399.31 328.41,-485.47 266.49,-525.85"/>
<polygon fill="black" stroke="black" points="264.91,-522.7 258.44,-531.1 268.73,-528.57 264.91,-522.7"/>
</g>
<!-- Retail -->
<g id="node14" class="node">
<title>Retail</title>
<ellipse fill="lightgreen" stroke="black" cx="157.89" cy="-507.65" rx="28.8" ry="28.8"/>
<text text-anchor="middle" x="157.89" y="-504.92" font-family="Times,serif" font-size="8.00">Retail</text>
</g>
<!-- Industrial Design&#45;&gt;Retail -->
<g id="edge13" class="edge">
<title>Industrial Design&#45;&gt;Retail</title>
<path fill="none" stroke="black" d="M526.4,-345.79C441.56,-383.05 270.46,-458.21 195.04,-491.33"/>
<polygon fill="black" stroke="black" points="193.76,-488.07 186.01,-495.3 196.57,-494.48 193.76,-488.07"/>
</g>
<!-- Transportation -->
<g id="node15" class="node">
<title>Transportation</title>
<ellipse fill="lightgreen" stroke="black" cx="98.99" cy="-460.46" rx="28.8" ry="28.8"/>
<text text-anchor="middle" x="98.99" y="-457.74" font-family="Times,serif" font-size="8.00">Transportation</text>
</g>
<!-- Industrial Design&#45;&gt;Transportation -->
<g id="edge14" class="edge">
<title>Industrial Design&#45;&gt;Transportation</title>
<path fill="none" stroke="black" d="M524.04,-338.86C427.78,-366.4 223.71,-424.78 138.1,-449.28"/>
<polygon fill="black" stroke="black" points="137.17,-445.9 128.52,-452.02 139.09,-452.63 137.17,-445.9"/>
</g>
<!-- Lighting Design -->
<g id="node16" class="node">
<title>Lighting Design</title>
<ellipse fill="lightgreen" stroke="black" cx="58.42" cy="-408.03" rx="28.8" ry="28.8"/>
<text text-anchor="middle" x="58.42" y="-405.31" font-family="Times,serif" font-size="8.00">Lighting Design</text>
</g>
<!-- Industrial Design&#45;&gt;Lighting Design -->
<g id="edge15" class="edge">
<title>Industrial Design&#45;&gt;Lighting Design</title>
<path fill="none" stroke="black" d="M522.56,-332.68C418.51,-349.57 190.86,-386.53 98.52,-401.52"/>
<polygon fill="black" stroke="black" points="97.99,-398.06 88.68,-403.12 99.11,-404.97 97.99,-398.06"/>
</g>
<!-- Sustainable Design -->
<g id="node17" class="node">
<title>Sustainable Design</title>
<ellipse fill="lightgreen" stroke="black" cx="37.73" cy="-352.37" rx="28.8" ry="28.8"/>
<text text-anchor="middle" x="37.73" y="-349.65" font-family="Times,serif" font-size="8.00">Sustainable Design</text>
</g>
<!-- Industrial Design&#45;&gt;Sustainable Design -->
<g id="edge16" class="edge">
<title>Industrial Design&#45;&gt;Sustainable Design</title>
<path fill="none" stroke="black" d="M521.92,-326.85C414.03,-332.54 174.2,-345.18 78.4,-350.23"/>
<polygon fill="black" stroke="black" points="78.24,-346.73 68.44,-350.75 78.61,-353.72 78.24,-346.73"/>
</g>
<!-- Wearable Technology -->
<g id="node18" class="node">
<title>Wearable Technology</title>
<ellipse fill="lightgreen" stroke="black" cx="37.73" cy="-295.63" rx="28.8" ry="28.8"/>
<text text-anchor="middle" x="37.73" y="-292.9" font-family="Times,serif" font-size="8.00">Wearable Technology</text>
</g>
<!-- Industrial Design&#45;&gt;Wearable Technology -->
<g id="edge17" class="edge">
<title>Industrial Design&#45;&gt;Wearable Technology</title>
<path fill="none" stroke="black" d="M521.92,-321.15C414.03,-315.46 174.2,-302.82 78.4,-297.77"/>
<polygon fill="black" stroke="black" points="78.61,-294.28 68.44,-297.25 78.24,-301.27 78.61,-294.28"/>
</g>
<!-- Food and Beverage -->
<g id="node19" class="node">
<title>Food and Beverage</title>
<ellipse fill="lightgreen" stroke="black" cx="58.42" cy="-239.97" rx="28.8" ry="28.8"/>
<text text-anchor="middle" x="58.42" y="-237.24" font-family="Times,serif" font-size="8.00">Food and Beverage</text>
</g>
<!-- Industrial Design&#45;&gt;Food and Beverage -->
<g id="edge18" class="edge">
<title>Industrial Design&#45;&gt;Food and Beverage</title>
<path fill="none" stroke="black" d="M522.56,-315.32C418.51,-298.43 190.86,-261.47 98.52,-246.48"/>
<polygon fill="black" stroke="black" points="99.11,-243.03 88.68,-244.88 97.99,-249.94 99.11,-243.03"/>
</g>
<!-- Defense and Security -->
<g id="node20" class="node">
<title>Defense and Security</title>
<ellipse fill="lightgreen" stroke="black" cx="98.99" cy="-187.54" rx="28.8" ry="28.8"/>
<text text-anchor="middle" x="98.99" y="-184.81" font-family="Times,serif" font-size="8.00">Defense and Security</text>
</g>
<!-- Industrial Design&#45;&gt;Defense and Security -->
<g id="edge19" class="edge">
<title>Industrial Design&#45;&gt;Defense and Security</title>
<path fill="none" stroke="black" d="M524.04,-309.14C427.78,-281.6 223.71,-223.22 138.1,-198.72"/>
<polygon fill="black" stroke="black" points="139.09,-195.37 128.52,-195.98 137.17,-202.1 139.09,-195.37"/>
</g>
<!-- Footwear -->
<g id="node21" class="node">
<title>Footwear</title>
<ellipse fill="lightgreen" stroke="black" cx="157.89" cy="-140.35" rx="28.8" ry="28.8"/>
<text text-anchor="middle" x="157.89" y="-137.63" font-family="Times,serif" font-size="8.00">Footwear</text>
</g>
<!-- Industrial Design&#45;&gt;Footwear -->
<g id="edge20" class="edge">
<title>Industrial Design&#45;&gt;Footwear</title>
<path fill="none" stroke="black" d="M526.4,-302.21C441.56,-264.95 270.46,-189.79 195.04,-156.67"/>
<polygon fill="black" stroke="black" points="196.57,-153.52 186.01,-152.7 193.76,-159.93 196.57,-153.52"/>
</g>
<!-- Bio&#45;Design and Biomimicry -->
<g id="node22" class="node">
<title>Bio&#45;Design and Biomimicry</title>
<ellipse fill="lightgreen" stroke="black" cx="232.87" cy="-100.22" rx="28.8" ry="28.8"/>
<text text-anchor="middle" x="232.87" y="-97.5" font-family="Times,serif" font-size="8.00">Bio&#45;Design and Biomimicry</text>
</g>
<!-- Industrial Design&#45;&gt;Bio&#45;Design and Biomimicry -->
<g id="edge21" class="edge">
<title>Industrial Design&#45;&gt;Bio&#45;Design and Biomimicry</title>
<path fill="none" stroke="black" d="M530.44,-294.28C460.53,-248.69 328.41,-162.53 266.49,-122.15"/>
<polygon fill="black" stroke="black" points="268.73,-119.43 258.44,-116.9 264.91,-125.3 268.73,-119.43"/>
</g>
<!-- Smart Home Devices -->
<g id="node23" class="node">
<title>Smart Home Devices</title>
<ellipse fill="lightgreen" stroke="black" cx="321.03" cy="-68.69" rx="28.8" ry="28.8"/>
<text text-anchor="middle" x="321.03" y="-65.96" font-family="Times,serif" font-size="8.00">Smart Home Devices</text>
</g>
<!-- Industrial Design&#45;&gt;Smart Home Devices -->
<g id="edge22" class="edge">
<title>Industrial Design&#45;&gt;Smart Home Devices</title>
<path fill="none" stroke="black" d="M537.55,-285.5C485.95,-233.83 395.48,-143.24 349.54,-97.23"/>
<polygon fill="black" stroke="black" points="352.11,-94.85 342.56,-90.25 347.15,-99.8 352.11,-94.85"/>
</g>
<!-- Virtual and Augmented Reality -->
<g id="node24" class="node">
<title>Virtual and Augmented Reality</title>
<ellipse fill="lightgreen" stroke="black" cx="419" cy="-46.97" rx="28.8" ry="28.8"/>
<text text-anchor="middle" x="419" y="-44.25" font-family="Times,serif" font-size="8.00">Virtual and Augmented Reality</text>
</g>
<!-- Industrial Design&#45;&gt;Virtual and Augmented Reality -->
<g id="edge23" class="edge">
<title>Industrial Design&#45;&gt;Virtual and Augmented Reality</title>
<path fill="none" stroke="black" d="M549.19,-276.69C517.87,-221.43 466.8,-131.32 438.84,-81.98"/>
<polygon fill="black" stroke="black" points="441.96,-80.39 433.98,-73.42 435.87,-83.84 441.96,-80.39"/>
</g>
<!-- Internet of Things -->
<g id="node25" class="node">
<title>Internet of Things</title>
<ellipse fill="lightgreen" stroke="black" cx="522.98" cy="-35.9" rx="28.8" ry="28.8"/>
<text text-anchor="middle" x="522.98" y="-33.18" font-family="Times,serif" font-size="8.00">Internet of Things</text>
</g>
<!-- Industrial Design&#45;&gt;Internet of Things -->
<g id="edge24" class="edge">
<title>Industrial Design&#45;&gt;Internet of Things</title>
<path fill="none" stroke="black" d="M566.15,-270.49C555.76,-214.02 539.63,-126.36 530.31,-75.71"/>
<polygon fill="black" stroke="black" points="533.78,-75.27 528.53,-66.07 526.9,-76.53 533.78,-75.27"/>
</g>
<!-- Generative Design -->
<g id="node26" class="node">
<title>Generative Design</title>
<ellipse fill="lightgreen" stroke="black" cx="629.02" cy="-35.9" rx="28.8" ry="28.8"/>
<text text-anchor="middle" x="629.02" y="-33.18" font-family="Times,serif" font-size="8.00">Generative Design</text>
</g>
<!-- Industrial Design&#45;&gt;Generative Design -->
<g id="edge25" class="edge">
<title>Industrial Design&#45;&gt;Generative Design</title>
<path fill="none" stroke="black" d="M585.85,-270.49C596.24,-214.02 612.37,-126.36 621.69,-75.71"/>
<polygon fill="black" stroke="black" points="625.1,-76.53 623.47,-66.07 618.22,-75.27 625.1,-76.53"/>
</g>
<!-- Robotics -->
<g id="node27" class="node">
<title>Robotics</title>
<ellipse fill="lightgreen" stroke="black" cx="733" cy="-46.97" rx="28.8" ry="28.8"/>
<text text-anchor="middle" x="733" y="-44.25" font-family="Times,serif" font-size="8.00">Robotics</text>
</g>
<!-- Industrial Design&#45;&gt;Robotics -->
<g id="edge26" class="edge">
<title>Industrial Design&#45;&gt;Robotics</title>
<path fill="none" stroke="black" d="M602.81,-276.69C634.13,-221.43 685.2,-131.32 713.16,-81.98"/>
<polygon fill="black" stroke="black" points="716.13,-83.84 718.02,-73.42 710.04,-80.39 716.13,-83.84"/>
</g>
<!-- Personalized Nutrition -->
<g id="node28" class="node">
<title>Personalized Nutrition</title>
<ellipse fill="lightgreen" stroke="black" cx="830.97" cy="-68.69" rx="28.8" ry="28.8"/>
<text text-anchor="middle" x="830.97" y="-65.96" font-family="Times,serif" font-size="8.00">Personalized Nutrition</text>
</g>
<!-- Industrial Design&#45;&gt;Personalized Nutrition -->
<g id="edge27" class="edge">
<title>Industrial Design&#45;&gt;Personalized Nutrition</title>
<path fill="none" stroke="black" d="M614.45,-285.5C666.05,-233.83 756.52,-143.24 802.46,-97.23"/>
<polygon fill="black" stroke="black" points="804.85,-99.8 809.44,-90.25 799.89,-94.85 804.85,-99.8"/>
</g>
<!-- Off&#45;Grid Living Solutions -->
<g id="node29" class="node">
<title>Off&#45;Grid Living Solutions</title>
<ellipse fill="lightgreen" stroke="black" cx="919.13" cy="-100.22" rx="28.8" ry="28.8"/>
<text text-anchor="middle" x="919.13" y="-97.5" font-family="Times,serif" font-size="8.00">Off&#45;Grid Living Solutions</text>
</g>
<!-- Industrial Design&#45;&gt;Off&#45;Grid Living Solutions -->
<g id="edge28" class="edge">
<title>Industrial Design&#45;&gt;Off&#45;Grid Living Solutions</title>
<path fill="none" stroke="black" d="M621.56,-294.28C691.47,-248.69 823.59,-162.53 885.51,-122.15"/>
<polygon fill="black" stroke="black" points="887.09,-125.3 893.56,-116.9 883.27,-119.43 887.09,-125.3"/>
</g>
<!-- Quantum Computing Interfaces -->
<g id="node30" class="node">
<title>Quantum Computing Interfaces</title>
<ellipse fill="lightgreen" stroke="black" cx="994.11" cy="-140.35" rx="28.8" ry="28.8"/>
<text text-anchor="middle" x="994.11" y="-137.63" font-family="Times,serif" font-size="8.00">Quantum Computing Interfaces</text>
</g>
<!-- Industrial Design&#45;&gt;Quantum Computing Interfaces -->
<g id="edge29" class="edge">
<title>Industrial Design&#45;&gt;Quantum Computing Interfaces</title>
<path fill="none" stroke="black" d="M625.6,-302.21C710.44,-264.95 881.54,-189.79 956.96,-156.67"/>
<polygon fill="black" stroke="black" points="958.24,-159.93 965.99,-152.7 955.43,-153.52 958.24,-159.93"/>
</g>
<!-- Metaverse&#45;Ready Wearables -->
<g id="node31" class="node">
<title>Metaverse&#45;Ready Wearables</title>
<ellipse fill="lightgreen" stroke="black" cx="1053.01" cy="-187.54" rx="28.8" ry="28.8"/>
<text text-anchor="middle" x="1053.01" y="-184.81" font-family="Times,serif" font-size="8.00">Metaverse&#45;Ready Wearables</text>
</g>
<!-- Industrial Design&#45;&gt;Metaverse&#45;Ready Wearables -->
<g id="edge30" class="edge">
<title>Industrial Design&#45;&gt;Metaverse&#45;Ready Wearables</title>
<path fill="none" stroke="black" d="M627.96,-309.14C724.22,-281.6 928.29,-223.22 1013.9,-198.72"/>
<polygon fill="black" stroke="black" points="1014.83,-202.1 1023.48,-195.98 1012.91,-195.37 1014.83,-202.1"/>
</g>
<!-- Design for Aging Populations -->
<g id="node32" class="node">
<title>Design for Aging Populations</title>
<ellipse fill="lightgreen" stroke="black" cx="1093.58" cy="-239.97" rx="28.8" ry="28.8"/>
<text text-anchor="middle" x="1093.58" y="-237.24" font-family="Times,serif" font-size="8.00">Design for Aging Populations</text>
</g>
<!-- Industrial Design&#45;&gt;Design for Aging Populations -->
<g id="edge31" class="edge">
<title>Industrial Design&#45;&gt;Design for Aging Populations</title>
<path fill="none" stroke="black" d="M629.44,-315.32C733.49,-298.43 961.14,-261.47 1053.48,-246.48"/>
<polygon fill="black" stroke="black" points="1054.01,-249.94 1063.32,-244.88 1052.89,-243.03 1054.01,-249.94"/>
</g>
<!-- Circular Economy Products -->
<g id="node33" class="node">
<title>Circular Economy Products</title>
<ellipse fill="lightgreen" stroke="black" cx="1114.27" cy="-295.63" rx="28.8" ry="28.8"/>
<text text-anchor="middle" x="1114.27" y="-292.9" font-family="Times,serif" font-size="8.00">Circular Economy Products</text>
</g>
<!-- Industrial Design&#45;&gt;Circular Economy Products -->
<g id="edge32" class="edge">
<title>Industrial Design&#45;&gt;Circular Economy Products</title>
<path fill="none" stroke="black" d="M630.08,-321.15C737.97,-315.46 977.8,-302.82 1073.6,-297.77"/>
<polygon fill="black" stroke="black" points="1073.76,-301.27 1083.56,-297.25 1073.39,-294.28 1073.76,-301.27"/>
</g>
</g>
</svg>
