<?xml version="1.0" encoding="UTF-8"?>
<svg id="Layer_2" xmlns="http://www.w3.org/2000/svg" version="1.1" viewBox="0 0 1146 648">
  <!-- Generator: Adobe Illustrator 29.5.1, SVG Export Plug-In . SVG Version: 2.1.0 Build 141)  -->
  <defs>
    <style>
      .st0 {
        font-size: 12px;
      }

      .st0, .st1, .st2, .st3, .st4 {
        fill: #fff;
      }

      .st0, .st1, .st3, .st4 {
        font-family: MyriadPro-BlackCondIt, 'Myriad Pro';
        font-style: italic;
        font-weight: 800;
      }

      .st5, .st6 {
        stroke: #ce0e2d;
        stroke-miterlimit: 10;
        stroke-width: 4px;
      }

      .st1 {
        isolation: isolate;
      }

      .st1, .st3 {
        font-size: 14px;
      }

      .st7 {
        fill: #ce0e2d;
      }

      .st6 {
        fill: none;
      }

      .st4 {
        font-size: 40px;
      }

      .st8 {
        display: none;
      }

      .st9 {
        stroke: red;
        stroke-miterlimit: 4;
        stroke-width: 3px;
      }
    </style>
  </defs>
  <rect width="1146" height="648"/>
  <g class="st8">
    <text class="st0" transform="translate(166.9 166.2)"><tspan x="0" y="0">FOOTWEAR</tspan></text>
    <text class="st0" transform="translate(306.4 172.5)"><tspan x="0" y="0">FOOTWEAR</tspan></text>
    <text class="st0" transform="translate(379.4 55)"><tspan x="0" y="0">FOOTWEAR</tspan></text>
    <text class="st0" transform="translate(525.7 47)"><tspan x="0" y="0">FOOTWEAR</tspan></text>
    <text class="st0" transform="translate(454 145.5)"><tspan x="0" y="0">FOOTWEAR</tspan></text>
    <text class="st0" transform="translate(58.9 256.4)"><tspan x="0" y="0">FOOTWEAR</tspan></text>
    <text class="st0" transform="translate(58.9 399.2)"><tspan x="0" y="0">FOOTWEAR</tspan></text>
    <text class="st0" transform="translate(203.4 409.1)"><tspan x="0" y="0">FOOTWEAR</tspan></text>
    <text class="st0" transform="translate(122.5 503.3)"><tspan x="0" y="0">FOOTWEAR</tspan></text>
    <text class="st0" transform="translate(221.2 586.8)"><tspan x="0" y="0">FOOTWEAR</tspan></text>
    <text class="st0" transform="translate(309.8 518.2)"><tspan x="0" y="0">FOOTWEAR</tspan></text>
    <text class="st0" transform="translate(403.8 453.2)"><tspan x="0" y="0">FOOTWEAR</tspan></text>
    <text class="st0" transform="translate(412.7 601.8)"><tspan x="0" y="0">FOOTWEAR</tspan></text>
    <text class="st0" transform="translate(508 530.3)"><tspan x="0" y="0">FOOTWEAR</tspan></text>
    <text class="st0" transform="translate(574.7 601.8)"><tspan x="0" y="0">FOOTWEAR</tspan></text>
    <text class="st0" transform="translate(646.5 521.8)"><tspan x="0" y="0">FOOTWEAR</tspan></text>
    <text class="st0" transform="translate(721 593.9)"><tspan x="0" y="0">FOOTWEAR</tspan></text>
    <text class="st0" transform="translate(794 482.7)"><tspan x="0" y="0">FOOTWEAR</tspan></text>
    <text class="st0" transform="translate(867.3 557.3)"><tspan x="0" y="0">FOOTWEAR</tspan></text>
    <text class="st0" transform="translate(933.5 482.7)"><tspan x="0" y="0">FOOTWEAR</tspan></text>
    <text class="st0" transform="translate(1041.5 555)"><tspan x="0" y="0">FOOTWEAR</tspan></text>
    <text class="st0" transform="translate(1041.5 392.5)"><tspan x="0" y="0">FOOTWEAR</tspan></text>
    <text class="st0" transform="translate(1041.5 249.6)"><tspan x="0" y="0">FOOTWEAR</tspan></text>
    <text class="st0" transform="translate(897.1 239.7)"><tspan x="0" y="0">FOOTWEAR</tspan></text>
    <text class="st0" transform="translate(978 145.5)"><tspan x="0" y="0">FOOTWEAR</tspan></text>
    <text class="st0" transform="translate(696.7 195.6)"><tspan x="0" y="0">FOOTWEAR</tspan></text>
    <text class="st0" transform="translate(790.7 127)"><tspan x="0" y="0">FOOTWEAR</tspan></text>
    <text class="st0" transform="translate(879.2 62.1)"><tspan x="0" y="0">FOOTWEAR</tspan></text>
    <text class="st0" transform="translate(687.7 47)"><tspan x="0" y="0">FOOTWEAR</tspan></text>
    <text class="st0" transform="translate(592.5 118.5)"><tspan x="0" y="0">FOOTWEAR</tspan></text>
  </g>
  <g>
    <rect class="st5" x="135.7" y="139.2" width="108" height="54" rx="9.6" ry="9.6" transform="translate(379.4 332.3) rotate(-180)"/>
    <path class="st6" d="M465,279.7H198.7c-4.9,0-9-4.1-9-9v-77.6"/>
    <text class="st1" transform="translate(164.6 159.8)"><tspan x="0" y="0">CONSUMER </tspan><tspan x="-3.7" y="16.8">ELECTRONICS</tspan></text>
  </g>
  <g>
    <rect class="st5" x="104.4" y="464.2" width="108" height="54" rx="9.6" ry="9.6" transform="translate(316.9 982.4) rotate(-180)"/>
    <path class="st6" d="M158.4,464.5v-118.5c0-5,4.1-9,9-9h297.6"/>
    <text class="st1" transform="translate(115 491.2)"><tspan x="0" y="0">TRANSPORTATION</tspan></text>
  </g>
  <g>
    <rect class="st5" x="20.7" y="355.1" width="108" height="54" rx="9.6" ry="9.6" transform="translate(149.3 764.3) rotate(-180)"/>
    <path class="st6" d="M74.7,355.1v-21.7c0-5,4.1-9,9-9h381.3"/>
    <text class="st1" transform="translate(32.9 382.1)"><tspan x="0" y="0">MEDICAL DEVICES</tspan></text>
  </g>
  <g>
    <rect class="st5" x="203.7" y="559.8" width="108" height="54" rx="9.6" ry="9.6" transform="translate(515.4 1173.5) rotate(-180)"/>
    <path class="st6" d="M257.4,559.8v-91.6c0-5,4.1-9,9-9h41.6c4.9,0,9-4,9-9v-75.6c0-5,4.1-9,9-9h138.9"/>
    <text class="st1" transform="translate(230 586.8)"><tspan x="0" y="0">FURNITURE</tspan></text>
  </g>
  <g>
    <rect class="st5" x="196.6" y="382.1" width="108" height="54" rx="9.6" ry="9.6" transform="translate(501.2 818.3) rotate(-180)"/>
    <path class="st6" d="M250.6,382.1v-21.4c0-5,4.1-9,9-9h205.4"/>
    <text class="st1" transform="translate(222.5 409.1)"><tspan x="0" y="0">PACKAGING</tspan></text>
  </g>
  <g>
    <rect class="st5" x="292.7" y="491.2" width="108" height="54" rx="9.6" ry="9.6" transform="translate(693.4 1036.4) rotate(-180)"/>
    <path class="st6" d="M346.7,491.2v-91.1c0-5,4.1-9,9-9h115.9c4.9,0,9-2.9,9-6.3v-6.3"/>
    <text class="st1" transform="translate(298.4 518.2)"><tspan x="0" y="0">HOME APPLIANCES</tspan></text>
  </g>
  <g>
    <rect class="st5" x="381.5" y="574.8" width="108" height="54" rx="9.6" ry="9.6" transform="translate(871 1203.7) rotate(-180)"/>
    <path class="st6" d="M435.5,574.8v-74.6c0-5,4.1-9,9-9h59.7c4.9,0,9-4,9-9v-103.8"/>
    <text class="st1" transform="translate(402.7 595.5)"><tspan x="0" y="0">FASHION AND</tspan><tspan x=".5" y="16.8" xml:space="preserve"> ACCESSORIES</tspan></text>
  </g>
  <g>
    <rect class="st5" x="372.6" y="426.2" width="108" height="54" rx="9.6" ry="9.6" transform="translate(853.1 906.5) rotate(-180)"/>
    <path class="st6" d="M426.6,426.2v-13.7c0-5,4.1-9,9-9h53.2c4.9,0,9-4,9-9v-16.1"/>
    <text class="st1" transform="translate(384.4 453.2)"><tspan x="0" y="0">SPORTING GOODS</tspan></text>
  </g>
  <g>
    <rect class="st5" x="476.8" y="503.3" width="108" height="54" rx="9.6" ry="9.6" transform="translate(1061.6 1060.6) rotate(-180)"/>
    <path class="st6" d="M530.8,503.3v-45.5c0-5,4.1-9,9-9h2.6c4.9,0,9-4,9-9v-61.4"/>
    <text class="st1" transform="translate(478.7 530.3)"><tspan x="0" y="0">TOY MANUFACTURING</tspan></text>
  </g>
  <g>
    <rect class="st5" x="543.5" y="574.8" width="108" height="54" rx="9.6" ry="9.6"/>
    <path class="st6" d="M573,378.4v85.6c0,5.5,4.5,10,10,10h4.5c5.5,0,10,4.5,10,10v90.8"/>
    <text class="st1" transform="translate(569.8 601.8)"><tspan x="0" y="0">AEROSPACE</tspan></text>
  </g>
  <g>
    <rect class="st5" x="689.8" y="566.9" width="108" height="54" rx="9.6" ry="9.6"/>
    <path class="st6" d="M626.1,378.4v59.5c0,5,4,9,9,9h99.7c5,0,9,4,9,9v110.9"/>
    <text class="st1" transform="translate(708.2 593.9)"><tspan x="0" y="0">ARCHITECTURE</tspan></text>
  </g>
  <g>
    <rect class="st5" x="615.2" y="494.8" width="108" height="54" rx="9.6" ry="9.6"/>
    <path class="st6" d="M601.5,378.4v75.2c0,5,4,9,9,9h49.7c5,0,9,4,9,9v23.2"/>
    <text class="st1" transform="translate(626.8 515.5)"><tspan x="0" y="0">ENTERTAINMENT/</tspan><tspan x="10.7" y="16.8">CONCEPT ART</tspan></text>
  </g>
  <g>
    <rect class="st5" x="836.1" y="530.3" width="108" height="54" rx="9.6" ry="9.6"/>
    <path class="st6" d="M660.8,378.4v10.9c0,5,4,9,9,9h211.3c5,0,9,4,9,9v123"/>
    <text class="st1" transform="translate(873.6 557.3)"><tspan x="0" y="0">RETAIL</tspan></text>
  </g>
  <g>
    <rect class="st5" x="762.8" y="455.7" width="108" height="54" rx="9.6" ry="9.6"/>
    <path class="st6" d="M642.8,378.4v44.5c0,5,4,9,9,9h156c5,0,9,4,9,9v14.7"/>
    <text class="st1" transform="translate(787 477)"><tspan x="0" y="0">GENERATIVE</tspan><tspan x="11.8" y="16.8">DESIGN</tspan></text>
  </g>
  <g>
    <rect class="st5" x="1010.3" y="528" width="108" height="54" rx="9.6" ry="9.6"/>
    <path class="st6" d="M681,351.8h288.7c5,0,9,4,9,9v73.9c0,5,4,9,9,9h67.6c5,0,9,4,9,9v75.3"/>
    <text class="st1" transform="translate(1022.2 555)"><tspan x="0" y="0">LIGHTING DESIGN</tspan></text>
  </g>
  <g>
    <rect class="st5" x="902.3" y="455.7" width="108" height="54" rx="9.6" ry="9.6"/>
    <path class="st6" d="M681,369.1h266.3c5,0,9,4,9,9v77.6"/>
    <text class="st1" transform="translate(904.9 482.7)"><tspan x="0" y="0">SUSTAINABLE DESIGN</tspan></text>
  </g>
  <g>
    <rect class="st5" x="995.6" y="370.4" width="108" height="54" rx="9.6" ry="9.6"/>
    <path class="st6" d="M681,337.9h359.6c5,0,9,4,9,9v23.5"/>
    <text class="st1" transform="translate(1022.5 391.1)"><tspan x="0" y="0">WEARABLE </tspan><tspan x="-4.3" y="16.8">TECHNOLOGY</tspan></text>
  </g>
  <g>
    <rect class="st5" x="1010.3" y="243.7" width="108" height="54" rx="9.6" ry="9.6"/>
    <path class="st6" d="M1064.3,297.7v17.8c0,4.9-4.1,9-9,9h-374.3"/>
    <text class="st1" transform="translate(1033 270.7)"><tspan x="0" y="0">AUTOMOTIVE</tspan></text>
  </g>
  <g>
    <rect class="st5" x="865.9" y="212.7" width="108" height="54" rx="9.6" ry="9.6"/>
    <path class="st6" d="M919.9,266.7v21.4c0,4.9-4.1,9-9,9h-229.9"/>
    <text class="st1" transform="translate(888.5 233.3)"><tspan x="0" y="0">DEFENSE AND </tspan><tspan x="11" y="16.8">SECURITY</tspan></text>
  </g>
  <g>
    <rect class="st5" x="936.6" y="118.5" width="108" height="54" rx="9.6" ry="9.6"/>
    <path class="st6" d="M990.6,172.2v129.5c0,4.9-4.1,9-9,9h-300.6"/>
    <text class="st1" transform="translate(961.1 139.2)"><tspan x="0" y="0">BIO-DESIGN </tspan><tspan x="-12.2" y="16.8">AND BIOMIMICRY</tspan></text>
  </g>
  <g>
    <rect class="st5" x="848" y="35.1" width="108" height="54" rx="9.6" ry="9.6"/>
    <path class="st6" d="M902.3,89.1v91.6c0,4.9-4.1,9-9,9h-36.3c-5,0-9,4-9,9v75.6c0,4.9-4.1,9-9,9h-158"/>
    <text class="st1" transform="translate(849.5 62.1)"><tspan x="0" y="0">SMART HOME DEVICES</tspan></text>
  </g>
  <g>
    <rect class="st5" x="665.4" y="168.6" width="108" height="54" rx="9.6" ry="9.6"/>
    <path class="st6" d="M719.4,222.6v8.5c0,4.7-4.1,8.5-9,8.5h-53.2c-5,0-9,4-9,9v21.7"/>
    <text class="st1" transform="translate(686.8 189.9)"><tspan x="0" y="0">VIRTUAL AND </tspan><tspan x="-17.7" y="16.8">AUGMENTED REALITY</tspan></text>
  </g>
  <g>
    <rect class="st5" x="738.7" y="93.8" width="108" height="54" rx="9.6" ry="9.6"/>
    <path class="st6" d="M792.7,147.8v100.9c0,4.9-4.1,9-9,9h-109.2c-5,0-9,2.9-9,6.3v6.3"/>
    <text class="st1" transform="translate(742.7 120.8)"><tspan x="0" y="0">INTERNET OF THINGS</tspan></text>
  </g>
  <g>
    <rect class="st5" x="656.5" y="20" width="108" height="54" rx="9.6" ry="9.6"/>
    <path class="st6" d="M710.5,74v74.6c0,4.9-4.1,9-9,9h-59.7c-5,0-9,4-9,9v103.8"/>
    <text class="st1" transform="translate(686.6 47)"><tspan x="0" y="0">ROBOTICS</tspan></text>
  </g>
  <g>
    <rect class="st5" x="561.2" y="91.5" width="108" height="54" rx="9.6" ry="9.6"/>
    <path class="st6" d="M615.2,145.5v45.5c0,4.9-4.1,9-9,9h-2.6c-5,0-9,4-9,9v61.4"/>
    <text class="st1" transform="translate(578.2 112.2)"><tspan x="0" y="0">PERSONALIZED </tspan><tspan x="10.2" y="16.8">NUTRITION</tspan></text>
  </g>
  <g>
    <rect class="st5" x="422.8" y="118.5" width="108" height="54" rx="9.6" ry="9.6" transform="translate(953.6 291.1) rotate(-180)"/>
    <path class="st6" d="M544.5,270.4v-65.8c0-4.9-4-9-9-9h-49.7c-4.9,0-9-4.1-9-9v-14.1"/>
    <text class="st1" transform="translate(452.7 139.2)"><tspan x="0" y="0">OFF-GRID </tspan><tspan x="-20.1" y="16.8">LIVING SOLUTIONS</tspan></text>
  </g>
  <g>
    <rect class="st5" x="494.5" y="20" width="108" height="54" rx="9.6" ry="9.6" transform="translate(1097 94) rotate(-180)"/>
    <path class="st6" d="M573,270.4v-85.6c0-5.5-4.5-10-10-10h-4.5c-5.5,0-10-4.5-10-10v-90.8"/>
    <text class="st1" transform="translate(523 40.6)"><tspan x="0" y="0">QUANTUM </tspan><tspan x="-4.7" y="16.8">COMPUTING </tspan></text>
  </g>
  <g>
    <rect class="st5" x="275.2" y="145.5" width="108" height="54" rx="9.6" ry="9.6" transform="translate(658.4 345) rotate(-180)"/>
    <path class="st6" d="M503.2,270.4v-14.1c0-4.9-4-9-9-9h-156c-4.9,0-9-4.1-9-9v-38.8"/>
    <text class="st1" transform="translate(282.8 166.1)"><tspan x="0" y="0">METAVERSE-READY </tspan><tspan x="17.6" y="16.8">WEARABLES</tspan></text>
  </g>
  <g>
    <rect class="st5" x="43.2" y="230.8" width="108" height="54" rx="9.6" ry="9.6" transform="translate(194.5 515.5) rotate(-180)"/>
    <path class="st6" d="M465,310.7H106.2c-4.9,0-9-4.1-9-9v-16.9"/>
    <text class="st1" transform="translate(77.7 251.4)"><tspan x="0" y="0">SERVICE</tspan><tspan x="1.5" y="16.8">DESIGN</tspan></text>
  </g>
  <g>
    <rect class="st5" x="348.2" y="28" width="108" height="54" rx="9.6" ry="9.6" transform="translate(804.4 110) rotate(-180)"/>
    <path class="st6" d="M519.9,270.4v-47.4c0-4.9-4-9-9-9h-99.7c-4.9,0-9-4.1-9-9v-123"/>
    <text class="st1" transform="translate(356 48.6)"><tspan x="0" y="0">DESIGN FOR AGING </tspan><tspan x="12.4" y="16.8">POPULATIONS</tspan></text>
  </g>
  <g>
    <rect class="st5" x="201.9" y="43.8" width="108" height="54" rx="9.6" ry="9.6" transform="translate(511.8 141.7) rotate(-180)"/>
    <path class="st6" d="M485.2,270.4v-4.2c0-2.3-4-4.2-9-4.2h-211.3c-4.9,0-9-4.1-9-9V97.8"/>
    <text class="st1" transform="translate(207 66.8)"><tspan x="0" y="0">CIRCULAR ECONOMY </tspan><tspan x="23.5" y="16.8">PRODUCTS</tspan></text>
  </g>
  <g>
    <rect class="st5" x="27.7" y="66.8" width="108" height="54" rx="9.6" ry="9.6" transform="translate(163.4 187.6) rotate(-180)"/>
    <path class="st6" d="M465,297.1H176.3c-4.9,0-9-4.1-9-9v-66.9c0-4.9-4-9-9-9h-67.6c-4.9,0-9-4.1-9-9v-82.4"/>
    <text class="st3" transform="translate(55.2 93.8)"><tspan x="0" y="0">FOOTWEAR</tspan></text>
  </g>
  <g>
    <rect class="st9" x="396.9" y="236.4" width="352.3" height="176.1" rx="9.6" ry="9.6"/>
    <text class="st4" transform="translate(436 296.7)"><tspan x="0" y="0">INDUSTRIAL DESIGN</tspan></text>
    <g>
      <g>
        <path class="st2" d="M555.7,354.3v-.6c0,0,2.2,0,2.2,0h2c0,0,0,.5,0,.5l-1.4.2v6.8c0,2.2-.9,3.6-4.2,4.4-3.3,0-4.5-1.8-4.5-4.4v-6.8l-1.5-.2v-.6c0,0,2.4,0,2.4,0h2.3c0,0,0,.5,0,.5l-1.4.2v7.1c0,2.1.9,3.3,2.8,3.3s2.7-1.2,2.7-3.3v-7l-1.5-.2Z"/>
        <path class="st2" d="M562.5,365.4h-1.9c0,0,0-.5,0-.5l1.2-.2v-6.1h-1.2c0,.1,0-.5,0-.5l2-.5h.7c0,0,0,1.4,0,1.4l2.5-1.6c2.1,0,2.5.7,2.5,2.7v4.7l1.3.2v.6c0,0-2,0-2,0h-1.6c0,0,0-.5,0-.5l.8-.2v-4.8c0-.9-.4-1.3-1.1-1.3s-1.2.4-1.7.8l-.5.3v5l.9.2v.6c0,0-1.7,0-1.7,0Z"/>
        <path class="st2" d="M572.6,365.4h-1.9c0,0,0-.5,0-.5l1.2-.2v-6.1h-1.2c0,.1,0-.5,0-.5l2-.5h.8c0,0,0,7.1,0,7.1l1.3.2v.6c0,0-2,0-2,0ZM571.8,353.8h1.2c0,0,.5,0,.5,0v.9c0,0-.1.8-.1.8h-1.2c0,.1-.5,0-.5,0v-.9c-.1,0,0-.8,0-.8Z"/>
        <path class="st2" d="M579.6,364.3l2-6.1-.8-.2v-.6c0,0,1.6,0,1.6,0h1.4c0,0,0,.5,0,.5l-1.1.2-2.8,6.9-1.2.5-2.9-7.4-1-.2v-.6c0,0,2,0,2,0h1.8c0,0,0,.5,0,.5l-1.1.2,1.8,4.9v1.2Z"/>
        <path class="st2" d="M585.9,361.1c0,1.9,1,3.3,2.8,3.3s1.5-.3,2.1-.7l.3.6c-.8.6-1.9,1-2.9,1.3-2,0-3.9-1.4-3.9-4.1s1.5-3.8,3.8-4.3c2.2,0,3,1.4,3,3.2v.7h-5.1ZM589.3,360.3c0-1.3-.3-2.2-1.5-2.2s-1.7,1-1.8,2.3l3.4-.2Z"/>
        <path class="st2" d="M594.9,359.7l1.9-2.3h1.3v1.7h-1.2c-.4,0-1.1.6-1.6,1.2l-.3.4v4l1.8.2v.6c0,0-2.5,0-2.5,0h-1.9c0,0,0-.5,0-.5l1.2-.2v-6.1h-1.2c0,.1,0-.5,0-.5l2-.5h.7c0,0,0,2.2,0,2.2Z"/>
        <path class="st2" d="M603.5,358.5c-.2-.1-.7-.4-1.3-.4s-1.3.4-1.3,1,.4.9,1.2,1.3l1.3.7c1.1.6,1.6,1.2,1.6,2.2,0,1.5-1.2,2.1-3.2,2.5-1,0-2.1-.5-2.5-.8l-.3-1.9h1.1l.6,1.4c.4.2.8.4,1.4.4.9,0,1.3-.6,1.3-1.3s-.4-.9-1.2-1.4l-1.3-.7c-.7-.4-1.4-1-1.4-1.9s1.1-1.8,3-2.2c.9,0,1.9.4,2.4.8v1.7h-.9l-.4-1.2Z"/>
        <path class="st2" d="M608.3,365.4h-1.9c0,0,0-.5,0-.5l1.2-.2v-6.1h-1.2c0,.1,0-.5,0-.5l2-.5h.8c0,0,0,7.1,0,7.1l1.3.2v.6c0,0-2,0-2,0ZM607.4,353.8h1.2c0,0,.5,0,.5,0v.9c0,0-.1.8-.1.8h-1.2c0,.1-.5,0-.5,0v-.9c-.1,0,0-.8,0-.8Z"/>
        <path class="st2" d="M610.5,358.5v-.3l.6-.6h1.1v-1.1l1.1-1.1h.4v2.3h2.5v.8h-2.5v4.9c0,.5.2,1,.9,1s.9-.2,1.3-.4l.3.6-2,1.1c-1.9,0-2.1-.7-2.1-2.2v-5h-1.6Z"/>
        <path class="st2" d="M618.5,369.4v-1.7h1.4l1.7-2.5-.7.2-2.7-7.1-1-.2v-.6c0,0,2,0,2,0h1.8c0,0,0,.5,0,.5l-1.1.2,1.8,4.9v1.2c.1,0,2.1-6.1,2.1-6.1l-.8-.2v-.6c0,0,1.6,0,1.6,0h1.4c0,0,0,.5,0,.5l-1.1.2-2.6,6.9-1.9,4.2h-2Z"/>
        <path class="st2" d="M639.1,361.3c0,2.5-1.5,3.9-4.1,4.4-2.2,0-3.7-1.7-3.7-4s1.5-3.9,4.1-4.4c2.2,0,3.7,1.7,3.7,4ZM635.4,364.8c1.3,0,2-1.4,2-3.2s-1-3.6-2.5-3.6-2,1.4-2,3.2,1,3.5,2.5,3.5Z"/>
        <path class="st2" d="M643,357.7h2.1v.8h-2.1v6.2h1.9c0,.1,0,.8,0,.8h-2.6c0,0-1.9,0-1.9,0v-.6c0,0,1.1-.2,1.1-.2v-6.2h-1.5v-.3l.5-.6h1v-.2c0-1,.3-1.7.9-2.3l1.4-1.6h2.1v1.3h-2.2l-.3.5c-.2.3-.4.8-.4,1.9v.5Z"/>
      </g>
      <g>
        <path class="st2" d="M568.5,382.6c0-6.6,4.6-11.1,11.4-11.1s5.3.8,7.5,2.4l-1.7,2.4c-1.8-1.3-3.8-2-5.9-2-4.9,0-8.3,3.4-8.3,8.3s3.4,8.3,8.3,8.3,4.1-.7,5.9-2l1.7,2.4c-2.2,1.6-4.6,2.4-7.5,2.4-6.8,0-11.4-4.5-11.4-11.1Z"/>
        <path class="st2" d="M593.2,393.2h-2.7v-21.3h2.7v21.3Z"/>
        <path class="st2" d="M611.3,385.4c.7.7,1.4,1.7,1.7,2.4h.1c-.2-.9-.3-2.1-.3-3.9v-12h2.7v21.6h-.2l-13-13.8c-.7-.7-1.4-1.7-1.7-2.4h0c.2.9.3,2.1.3,3.8v12h-2.7v-21.6h.3l13,13.8Z"/>
        <path class="st2" d="M619.3,382.6c0-6.6,4.6-11.1,11.4-11.1s5.3.8,7.5,2.4l-1.7,2.4c-1.8-1.3-3.8-2-5.9-2-4.9,0-8.3,3.4-8.3,8.3s3.4,8.3,8.3,8.3,4.1-.7,5.9-2l1.7,2.4c-2.2,1.6-4.6,2.4-7.5,2.4-6.8,0-11.4-4.5-11.4-11.1Z"/>
        <path class="st2" d="M643.9,393.2h-2.7v-21.3h2.7v21.3Z"/>
        <path class="st2" d="M662,385.4c.7.7,1.4,1.7,1.7,2.4h.1c-.2-.9-.3-2.1-.3-3.9v-12h2.7v21.6h-.2l-13-13.8c-.7-.7-1.4-1.7-1.7-2.4h0c.2.9.3,2.1.3,3.8v12h-2.7v-21.6h.3l13,13.8Z"/>
        <path class="st2" d="M684.5,385.4c.7.7,1.4,1.7,1.7,2.4h.1c-.2-.9-.3-2.1-.3-3.9v-12h2.7v21.6h-.2l-13-13.8c-.7-.7-1.4-1.7-1.7-2.4h0c.2.9.3,2.1.3,3.8v12h-2.7v-21.6h.3l13,13.8Z"/>
        <path class="st2" d="M701.4,371.4h.3l10,21.8h-3.1l-2.7-6h-8.8l-2.7,6h-3.1l10-21.8ZM699.6,384.9h3.8c.9,0,1.4,0,1.7,0h0c-.2-.3-.5-.8-.9-1.8l-1.9-4.5c-.4-1.1-.7-2-.8-2.5h-.1c0,.5-.3,1.4-.8,2.5l-1.9,4.5c-.4.9-.7,1.4-.9,1.7h0c.3,0,.8,0,1.7,0Z"/>
        <path class="st2" d="M725.1,374.5h-5.5c-.4,0-.6,0-.8,0h0c0,.2,0,.5,0,.8v18h-2.7v-18c0-.3,0-.6,0-.7h0c-.2,0-.4,0-.8,0h-5.5v-2.6h15.2v2.6Z"/>
        <path class="st2" d="M730.5,393.2h-2.7v-21.3h2.7v21.3Z"/>
      </g>
      <g>
        <rect class="st7" x="678.4" y="311.8" width="10.2" height="3"/>
        <path class="st7" d="M670.9,340.9c0-8.2,4.8-14.8,11.8-18.5v-4c-10.1,3.3-17.4,11.9-17.4,22.5s1.4,9.3,3.7,13c-6.3-1.1-9-5.5-9-13v-29.1h-11.2v3h5.4v26.1c0,10.4,6.8,15.9,17.2,16,4,4.4,9.6,7.5,15.9,8.4.5,0,1,.1,1.4.2v-3c-.5,0-.9-.2-.9-.2-9.8-2.5-17-10.8-17-21.4Z"/>
        <path class="st7" d="M694.6,340.9v-21c6.9,0,11.1,4.1,11.3,8.8l2.6.5,1.8-10.5-3.1-.6-.4,2.2c-5.5-2.8-10.2-3.3-14.8-3.3s-2.2,0-3.3.2v23.6c0,4.6-.6,7.3-3,10.2-2.6-2.9-3-6.1-3-10.2s0-12.6,0-12.6c-3.4,3.3-5.6,7.5-5.6,12.6,0,10.7,8.3,19.1,18.4,19.1s7.5-.8,10.4-2.8l-.7-1.1c-3.9,2-12,2.5-16.9-2.1,4.1-3.1,6.2-7,6.2-13.1Z"/>
      </g>
    </g>
  </g>
</svg>