<?xml version="1.0" encoding="UTF-8"?>
<svg id="Layer_2" data-name="Layer 2" xmlns="http://www.w3.org/2000/svg" viewBox="0 0 1146 648">
  <defs>
    <style>
      .cls-1 {
        isolation: isolate;
      }

      .cls-1, .cls-2, .cls-3, .cls-4 {
        fill: #fff;
      }

      .cls-1, .cls-3 {
        font-size: 14px;
      }

      .cls-1, .cls-3, .cls-4 {
        font-family: MyriadPro-BlackCondIt, 'Myriad Pro';
        font-style: italic;
        font-weight: 800;
      }

      .cls-5 {
        fill: #ce0e2d;
      }

      .cls-6 {
        letter-spacing: 0em;
      }

      .cls-7 {
        letter-spacing: 0em;
      }

      .cls-8, .cls-9 {
        stroke: #e00122;
        stroke-miterlimit: 10;
        stroke-width: 4px;
      }

      .cls-10 {
        letter-spacing: 0em;
      }

      .cls-11 {
        letter-spacing: 0em;
      }

      .cls-4 {
        font-size: 40px;
      }

      .cls-9 {
        fill: none;
      }

      .cls-12 {
        letter-spacing: -.03em;
      }

      .cls-13 {
        letter-spacing: -.02em;
      }

      .cls-14 {
        letter-spacing: -.02em;
      }

      .cls-15 {
        letter-spacing: -.01em;
      }

      .cls-16 {
        letter-spacing: -.04em;
      }

      .cls-17 {
        letter-spacing: -.03em;
      }

      .cls-18 {
        letter-spacing: -.03em;
      }

      .cls-19 {
        letter-spacing: -.03em;
      }

      .cls-20 {
        letter-spacing: 0em;
      }

      .cls-21 {
        letter-spacing: 0em;
      }

      .cls-22 {
        letter-spacing: 0em;
      }

      .cls-23 {
        letter-spacing: -.01em;
      }

      .cls-24 {
        letter-spacing: -.01em;
      }

      .cls-25 {
        letter-spacing: -.01em;
      }

      .cls-26 {
        letter-spacing: -.01em;
      }

      .cls-27 {
        letter-spacing: 0em;
      }

      .cls-28 {
        letter-spacing: .02em;
      }

      .cls-29 {
        letter-spacing: .02em;
      }

      .cls-30 {
        letter-spacing: .02em;
      }

      .cls-31 {
        letter-spacing: .01em;
      }

      .cls-32 {
        letter-spacing: .05em;
      }

      .cls-33 {
        letter-spacing: .05em;
      }

      .cls-34 {
        letter-spacing: .05em;
      }

      .cls-35 {
        letter-spacing: .04em;
      }

      .cls-36 {
        letter-spacing: 0em;
      }

      .cls-37 {
        letter-spacing: 0em;
      }

      .cls-38 {
        letter-spacing: .01em;
      }

      .cls-39 {
        letter-spacing: .01em;
      }

      .cls-40 {
        letter-spacing: 0em;
      }
    </style>
  </defs>
  <rect width="1146" height="648"/>
  <g>
    <path class="cls-9" d="M465,279.73H198.71c-4.95,0-9-4.05-9-9v-77.58"/>
    <path class="cls-9" d="M158.45,464.51v-118.53c0-4.95,4.05-9,9-9h297.55"/>
    <path class="cls-9" d="M74.65,355.14v-21.71c0-4.95,4.05-9,9-9h381.35"/>
    <path class="cls-9" d="M257.43,559.76v-91.62c0-4.95,4.05-9,9-9h41.63c4.95,0,9-4.05,9-9v-75.64c0-4.95,4.05-9,9-9h138.94"/>
    <path class="cls-9" d="M250.61,382.14v-21.37c0-4.95,4.05-9,9-9h205.39"/>
    <path class="cls-9" d="M346.68,491.2v-91.08c0-4.95,4.05-9,9-9h115.88c4.95,0,9-2.86,9-6.34v-6.34"/>
    <path class="cls-9" d="M435.5,574.85v-74.65c0-4.95,4.05-9,9-9h59.67c4.95,0,9-4.05,9-9v-103.77"/>
    <path class="cls-9" d="M426.56,426.23v-13.72c0-4.95,4.05-9,9-9h53.21c4.95,0,9-4.05,9-9v-16.09"/>
    <path class="cls-9" d="M530.78,503.32v-45.45c0-4.95,4.05-9,9-9h2.55c4.95,0,9-4.05,9-9v-61.45"/>
    <path class="cls-9" d="M573,378.42v85.61c0,5.5,4.5,10,10,10h4.5c5.5,0,10,4.5,10,10v90.81"/>
    <path class="cls-9" d="M626.14,378.42v59.51c0,4.95,4.05,9,9,9h99.65c4.95,0,9,4.05,9,9v110.93"/>
    <path class="cls-9" d="M601.51,378.42v75.2c0,4.95,4.05,9,9,9h49.72c4.95,0,9,4.05,9,9v23.21"/>
    <path class="cls-9" d="M660.83,378.42v10.87c0,4.95,4.05,9,9,9h211.26c4.95,0,9,4.05,9,9v123.02"/>
    <path class="cls-9" d="M642.84,378.42v44.54c0,4.95,4.05,9,9,9h155.97c4.95,0,9,4.05,9,9v14.73"/>
    <path class="cls-9" d="M681,351.77h288.74c4.95,0,9,4.05,9,9v73.92c0,4.95,4.05,9,9,9h67.55c4.95,0,9,4.05,9,9v75.35"/>
    <path class="cls-9" d="M681,369.12h266.29c4.95,0,9,4.05,9,9v77.58"/>
    <path class="cls-9" d="M681,337.93h359.56c4.95,0,9,4.05,9,9v23.51"/>
    <path class="cls-9" d="M1064.29,297.66v17.77c0,4.95-4.05,9-9,9h-374.29"/>
    <path class="cls-9" d="M919.88,266.71v21.37c0,4.95-4.05,9-9,9h-229.87"/>
    <path class="cls-9" d="M990.64,172.21v129.45c0,4.95-4.05,9-9,9h-300.64"/>
    <path class="cls-9" d="M902.29,89.09v91.62c0,4.95-4.05,9-9,9h-36.3c-4.95,0-9,4.05-9,9v75.64c0,4.95-4.05,9-9,9h-158"/>
    <path class="cls-9" d="M719.44,222.62v8.54c0,4.69-4.05,8.54-9,8.54h-53.21c-4.95,0-9,4.05-9,9v21.73"/>
    <path class="cls-9" d="M792.66,147.82v100.92c0,4.95-4.05,9-9,9h-109.22c-4.95,0-9,2.86-9,6.34v6.34"/>
    <path class="cls-9" d="M710.5,74v74.65c0,4.95-4.05,9-9,9h-59.67c-4.95,0-9,4.05-9,9v103.77"/>
    <path class="cls-9" d="M615.23,145.53v45.45c0,4.95-4.05,9-9,9h-2.55c-4.95,0-9,4.05-9,9v61.45"/>
    <path class="cls-9" d="M544.49,270.42v-65.8c0-4.95-4.05-9-9-9h-49.72c-4.95,0-9-4.05-9-9v-14.09"/>
    <path class="cls-9" d="M573,270.42v-85.61c0-5.5-4.5-10-10-10h-4.5c-5.5,0-10-4.5-10-10v-90.81"/>
    <path class="cls-9" d="M503.17,270.42v-14.11c0-4.95-4.05-9-9-9h-155.97c-4.95,0-9-4.05-9-9v-38.8"/>
    <path class="cls-9" d="M465,310.67H106.23c-4.95,0-9-4.05-9-9v-16.91"/>
    <path class="cls-9" d="M519.86,270.42v-47.39c0-4.95-4.05-9-9-9h-99.65c-4.95,0-9-4.05-9-9v-123.05"/>
    <path class="cls-9" d="M485.18,270.42v-4.19c0-2.3-4.05-4.19-9-4.19h-211.26c-4.95,0-9-4.05-9-9V97.84"/>
    <path class="cls-9" d="M465,297.08H176.26c-4.95,0-9-4.05-9-9v-66.86c0-4.95-4.05-9-9-9h-67.55c-4.95,0-9-4.05-9-9v-82.4"/>
  </g>
  <g>
    <rect class="cls-8" x="135.71" y="139.15" width="108" height="54" rx="9.57" ry="9.57" transform="translate(379.42 332.31) rotate(-180)"/>
    <text class="cls-1" transform="translate(164.69 159.78)"><tspan class="cls-15" x="0" y="0">C</tspan><tspan x="5.33" y="0">ONSUMER </tspan><tspan x="-3.93" y="16.8">ELE</tspan><tspan class="cls-30" x="12.49" y="16.8">C</tspan><tspan x="18.26" y="16.8">TRONICS</tspan></text>
  </g>
  <g>
    <rect class="cls-8" x="104.45" y="464.2" width="108" height="54" rx="9.57" ry="9.57" transform="translate(316.9 982.4) rotate(-180)"/>
    <text class="cls-1" transform="translate(115.45 491.2)"><tspan x="0" y="0">TRANSPOR</tspan><tspan class="cls-19" x="51.7" y="0">TA</tspan><tspan class="cls-6" x="62.58" y="0">TION</tspan></text>
  </g>
  <g>
    <rect class="cls-8" x="20.65" y="355.14" width="108" height="54" rx="9.57" ry="9.57" transform="translate(149.31 764.27) rotate(-180)"/>
    <text class="cls-1" transform="translate(32.68 382.14)"><tspan x="0" y="0">MEDI</tspan><tspan class="cls-29" x="25.35" y="0">C</tspan><tspan x="31.18" y="0">AL D</tspan><tspan class="cls-39" x="51.58" y="0">E</tspan><tspan x="57.39" y="0">VICES</tspan></text>
  </g>
  <g>
    <rect class="cls-8" x="203.72" y="559.76" width="108" height="54" rx="9.57" ry="9.57" transform="translate(515.45 1173.52) rotate(-180)"/>
    <text class="cls-1" transform="translate(229.98 586.76)"><tspan x="0" y="0">FURNITURE</tspan></text>
  </g>
  <g>
    <rect class="cls-8" x="196.61" y="382.14" width="108" height="54" rx="9.57" ry="9.57" transform="translate(501.22 818.27) rotate(-180)"/>
    <text class="cls-1" transform="translate(222.86 409.14)"><tspan class="cls-13" x="0" y="0">P</tspan><tspan class="cls-25" x="6.3" y="0">A</tspan><tspan x="12.49" y="0">CK</tspan><tspan class="cls-23" x="24.58" y="0">A</tspan><tspan x="30.77" y="0">GING</tspan></text>
  </g>
  <g>
    <rect class="cls-8" x="292.68" y="491.2" width="108" height="54" rx="9.57" ry="9.57" transform="translate(693.37 1036.4) rotate(-180)"/>
    <text class="cls-1" transform="translate(301.79 518.2)"><tspan x="0" y="0">HOME APPLIANCES</tspan></text>
  </g>
  <g>
    <rect class="cls-8" x="381.5" y="574.85" width="108" height="54" rx="9.57" ry="9.57" transform="translate(871.01 1203.69) rotate(-180)"/>
    <text class="cls-1" transform="translate(402.99 595.47)"><tspan class="cls-16" x="0" y="0">F</tspan><tspan x="5.11" y="0">ASHION AND</tspan><tspan x=".43" y="16.8"> </tspan><tspan class="cls-25" x="2.39" y="16.8">A</tspan><tspan class="cls-15" x="8.58" y="16.8">C</tspan><tspan x="13.92" y="16.8">CESSORIES</tspan></text>
  </g>
  <g>
    <rect class="cls-8" x="372.56" y="426.23" width="108" height="54" rx="9.57" ry="9.57" transform="translate(853.13 906.46) rotate(-180)"/>
    <text class="cls-1" transform="translate(384.43 453.23)"><tspan x="0" y="0">SPORTING GOODS</tspan></text>
  </g>
  <g>
    <rect class="cls-8" x="476.78" y="503.32" width="108" height="54" rx="9.57" ry="9.57" transform="translate(1061.55 1060.64) rotate(-180)"/>
    <text class="cls-1" transform="translate(502.93 530.32)"><tspan class="cls-22" x="0" y="0">T</tspan><tspan x="5.29" y="0">OY DESIGN</tspan></text>
  </g>
  <g>
    <rect class="cls-8" x="543.5" y="574.85" width="108" height="54" rx="9.57" ry="9.57"/>
    <text class="cls-1" transform="translate(570.04 601.85)"><tspan x="0" y="0">AEROS</tspan><tspan class="cls-12" x="31.22" y="0">P</tspan><tspan class="cls-23" x="37.52" y="0">A</tspan><tspan x="43.71" y="0">CE</tspan></text>
  </g>
  <g>
    <rect class="cls-8" x="689.8" y="566.86" width="108" height="54" rx="9.57" ry="9.57"/>
    <text class="cls-1" transform="translate(711.33 593.86)"><tspan x="0" y="0">VIDEO </tspan><tspan class="cls-31" x="31.51" y="0">G</tspan><tspan x="38.53" y="0">AMES</tspan></text>
  </g>
  <g>
    <rect class="cls-8" x="615.23" y="494.84" width="108" height="54" rx="9.57" ry="9.57"/>
    <text class="cls-1" transform="translate(626.99 515.46)"><tspan x="0" y="0">ENTER</tspan><tspan class="cls-17" x="30.84" y="0">T</tspan><tspan x="35.78" y="0">AINMENT/</tspan><tspan class="cls-15" x="10.56" y="16.8">C</tspan><tspan x="15.9" y="16.8">ONCEPT ART</tspan></text>
  </g>
  <g>
    <rect class="cls-8" x="836.09" y="530.32" width="108" height="54" rx="9.57" ry="9.57"/>
    <text class="cls-1" transform="translate(873.8 557.32)"><tspan x="0" y="0">RE</tspan><tspan class="cls-17" x="12.46" y="0">T</tspan><tspan x="17.4" y="0">AIL</tspan></text>
  </g>
  <g>
    <rect class="cls-8" x="762.81" y="455.69" width="108" height="54" rx="9.57" ry="9.57"/>
    <text class="cls-1" transform="translate(787.22 477.05)"><tspan x="0" y="0">GENER</tspan><tspan class="cls-18" x="32.3" y="0">A</tspan><tspan class="cls-11" x="38.23" y="0">TIVE</tspan><tspan x="11.58" y="16.8">DESIGN</tspan></text>
  </g>
  <g>
    <rect class="cls-8" x="1010.29" y="528.03" width="108" height="54" rx="9.57" ry="9.57"/>
    <text class="cls-1" transform="translate(1022.16 555.03)"><tspan x="0" y="0">LIGHTING DESIGN</tspan></text>
  </g>
  <g>
    <rect class="cls-8" x="902.29" y="455.69" width="108" height="54" rx="9.57" ry="9.57"/>
    <text class="cls-1" transform="translate(905.28 482.7)"><tspan x="0" y="0">S</tspan><tspan class="cls-21" x="5.43" y="0">U</tspan><tspan x="12.4" y="0">S</tspan><tspan class="cls-17" x="17.84" y="0">T</tspan><tspan x="22.78" y="0">AINA</tspan><tspan class="cls-24" x="46.58" y="0">B</tspan><tspan class="cls-7" x="53.31" y="0">LE DESIGN</tspan></text>
  </g>
  <g>
    <rect class="cls-8" x="995.56" y="370.44" width="108" height="54" rx="9.57" ry="9.57"/>
    <text class="cls-1" transform="translate(1022.59 391.07)"><tspan x="0" y="0">WEARA</tspan><tspan class="cls-23" x="34.5" y="0">B</tspan><tspan x="41.23" y="0">LE </tspan><tspan x="-4.28" y="16.8">TECHNO</tspan><tspan class="cls-26" x="34.03" y="16.8">L</tspan><tspan x="38.97" y="16.8">OGY</tspan></text>
  </g>
  <g>
    <rect class="cls-8" x="1010.29" y="243.66" width="108" height="54" rx="9.57" ry="9.57"/>
    <text class="cls-1" transform="translate(1033.1 270.66)"><tspan class="cls-26" x="0" y="0">A</tspan><tspan x="6.22" y="0">U</tspan><tspan class="cls-22" x="13.27" y="0">T</tspan><tspan x="18.56" y="0">OMOTIVE</tspan></text>
  </g>
  <g>
    <rect class="cls-8" x="865.88" y="212.71" width="108" height="54" rx="9.57" ry="9.57"/>
    <text class="cls-1" transform="translate(888.54 233.34)"><tspan x="0" y="0">DEFENSE AND </tspan><tspan x="10.67" y="16.8">SECURI</tspan><tspan class="cls-34" x="44.9" y="16.8">T</tspan><tspan class="cls-11" x="50.96" y="16.8">Y</tspan></text>
  </g>
  <g>
    <rect class="cls-8" x="936.64" y="118.53" width="108" height="54" rx="9.57" ry="9.57"/>
    <text class="cls-1" transform="translate(961.19 139.16)"><tspan class="cls-23" x="0" y="0">B</tspan><tspan class="cls-11" x="6.73" y="0">IO-DESIGN </tspan><tspan x="-12.25" y="16.8">AND </tspan><tspan class="cls-23" x="10.42" y="16.8">B</tspan><tspan x="17.15" y="16.8">IOMIMIC</tspan><tspan class="cls-40" x="58.77" y="16.8">R</tspan><tspan x="65.7" y="16.8">Y</tspan></text>
  </g>
  <g>
    <rect class="cls-8" x="848" y="35.09" width="108" height="54" rx="9.57" ry="9.57"/>
    <text class="cls-1" transform="translate(869.1 57.15)"><tspan x="0" y="0">SMART HOME </tspan><tspan x="13.22" y="16.8">D</tspan><tspan class="cls-38" x="20.22" y="16.8">E</tspan><tspan x="26.03" y="16.8">VICES</tspan></text>
  </g>
  <g>
    <rect class="cls-8" x="665.44" y="168.62" width="108" height="54" rx="9.57" ry="9.57"/>
    <text class="cls-1" transform="translate(686.81 189.89)"><tspan x="0" y="0">VIRT</tspan><tspan class="cls-37" x="22.06" y="0">U</tspan><tspan x="29.19" y="0">AL AND </tspan><tspan class="cls-26" x="-18.07" y="16.8">A</tspan><tspan x="-11.86" y="16.8">U</tspan><tspan class="cls-31" x="-4.8" y="16.8">G</tspan><tspan class="cls-11" x="2.21" y="16.8">MENTED REALI</tspan><tspan class="cls-33" x="71.8" y="16.8">T</tspan><tspan x="77.87" y="16.8">Y</tspan></text>
  </g>
  <g>
    <rect class="cls-8" x="738.66" y="93.82" width="108" height="54" rx="9.57" ry="9.57"/>
    <text class="cls-1" transform="translate(742.68 120.82)"><tspan x="0" y="0">INTERNET OF THINGS</tspan></text>
  </g>
  <g>
    <rect class="cls-8" x="656.5" y="20" width="108" height="54" rx="9.57" ry="9.57"/>
    <text class="cls-1" transform="translate(686.64 47)"><tspan x="0" y="0">ROBOTICS</tspan></text>
  </g>
  <g>
    <rect class="cls-8" x="561.23" y="91.53" width="108" height="54" rx="9.57" ry="9.57"/>
    <text class="cls-1" transform="translate(578.21 112.15)"><tspan x="0" y="0">PERSONALIZED </tspan><tspan x="10.16" y="16.8">NUTRITION</tspan></text>
  </g>
  <g>
    <rect class="cls-8" x="422.78" y="118.53" width="108" height="54" rx="9.57" ry="9.57" transform="translate(953.55 291.06) rotate(-180)"/>
    <text class="cls-1" transform="translate(452.72 139.16)"><tspan x="0" y="0">OFF-GRID </tspan><tspan x="-19.96" y="16.8">LIVING SO</tspan><tspan class="cls-14" x="27.3" y="16.8">L</tspan><tspan class="cls-10" x="32.17" y="16.8">UTIONS</tspan></text>
  </g>
  <g>
    <rect class="cls-8" x="494.5" y="20" width="108" height="54" rx="9.57" ry="9.57" transform="translate(1097 94.01) rotate(-180)"/>
    <text class="cls-1" transform="translate(522.94 40.63)"><tspan x="0" y="0">Q</tspan><tspan class="cls-36" x="6.97" y="0">U</tspan><tspan x="14.1" y="0">ANTUM </tspan><tspan class="cls-15" x="-4.53" y="16.8">C</tspan><tspan x=".8" y="16.8">OMPUTING </tspan></text>
  </g>
  <g>
    <rect class="cls-8" x="275.19" y="145.51" width="108" height="54" rx="9.57" ry="9.57" transform="translate(658.39 345.02) rotate(-180)"/>
    <text class="cls-1" transform="translate(283.07 166.14)"><tspan x="0" y="0">ME</tspan><tspan class="cls-19" x="14.62" y="0">T</tspan><tspan class="cls-27" x="19.56" y="0">A</tspan><tspan class="cls-10" x="25.77" y="0">VERSE-READY </tspan><tspan x="17.42" y="16.8">WEARA</tspan><tspan class="cls-23" x="51.91" y="16.8">B</tspan><tspan x="58.64" y="16.8">LES</tspan></text>
  </g>
  <g>
    <rect class="cls-8" x="43.23" y="230.76" width="108" height="54" rx="9.57" ry="9.57" transform="translate(194.46 515.52) rotate(-180)"/>
    <text class="cls-1" transform="translate(77.72 251.39)"><tspan x="0" y="0">SERVICE</tspan><tspan x="1.5" y="16.8">DESIGN</tspan></text>
  </g>
  <g>
    <rect class="cls-8" x="348.21" y="27.99" width="108" height="54" rx="9.57" ry="9.57" transform="translate(804.41 109.98) rotate(-180)"/>
    <text class="cls-1" transform="translate(366.82 48.62)"><tspan class="cls-25" x="0" y="0">A</tspan><tspan class="cls-14" x="6.19" y="0">C</tspan><tspan class="cls-10" x="11.52" y="0">CESSA</tspan><tspan class="cls-23" x="39.96" y="0">B</tspan><tspan x="46.69" y="0">ILI</tspan><tspan class="cls-32" x="59.25" y="0">T</tspan><tspan class="cls-10" x="65.31" y="0">Y</tspan><tspan x="17.38" y="16.8">DESIGN</tspan></text>
  </g>
  <g>
    <rect class="cls-8" x="201.91" y="43.84" width="108" height="54" rx="9.57" ry="9.57" transform="translate(511.83 141.68) rotate(-180)"/>
    <text class="cls-1" transform="translate(207.01 66.82)"><tspan x="0" y="0">CIRCU</tspan><tspan class="cls-28" x="28.67" y="0">L</tspan><tspan class="cls-10" x="34.03" y="0">AR E</tspan><tspan class="cls-15" x="54.81" y="0">C</tspan><tspan class="cls-10" x="60.14" y="0">ONOMY </tspan><tspan x="23.32" y="16.8">PRODU</tspan><tspan class="cls-30" x="57.79" y="16.8">C</tspan><tspan class="cls-40" x="63.55" y="16.8">T</tspan><tspan x="69.05" y="16.8">S</tspan></text>
  </g>
  <g>
    <rect class="cls-8" x="27.71" y="66.82" width="108" height="54" rx="9.57" ry="9.57" transform="translate(163.42 187.63) rotate(-180)"/>
    <text class="cls-3" transform="translate(54.96 93.82)"><tspan class="cls-23" x="0" y="0">F</tspan><tspan x="5.5" y="0">OO</tspan><tspan class="cls-35" x="19.45" y="0">T</tspan><tspan x="25.37" y="0">WEAR</tspan></text>
  </g>
  <g>
    <rect class="cls-8" x="396.86" y="236.36" width="352.28" height="176.14" rx="9.57" ry="9.57"/>
    <text class="cls-4" transform="translate(436.16 296.69)"><tspan x="0" y="0">IND</tspan><tspan class="cls-20" x="51.68" y="0">U</tspan><tspan x="71.6" y="0">STRIAL DESIGN</tspan></text>
    <g>
      <g>
        <path class="cls-2" d="M555.7,354.25l.08-.59,2.15.05,1.96-.05.08.59-1.43.22v6.84c0,2.18-.89,3.64-4.23,4.41-3.3,0-4.48-1.78-4.48-4.44v-6.81l-1.51-.22.08-.59,2.31.05,2.3-.05.08.59-1.43.22v7.06c0,2.08.89,3.27,2.8,3.27,1.74,0,2.72-1.17,2.72-3.32v-7.01l-1.51-.22Z"/>
        <path class="cls-2" d="M562.46,365.39l-1.93.05-.08-.59,1.17-.17v-6.12l-1.17.1-.08-.59,2.01-.52.72-.05.08,1.41,2.48-1.63c2.15,0,2.5.72,2.5,2.73v4.66l1.27.17-.08.59-1.93-.05-1.61.05-.08-.59.84-.17v-4.8c0-.87-.39-1.26-1.11-1.26-.59,0-1.17.37-1.74.75l-.5.34v4.96l.92.17-.08.59-1.59-.05Z"/>
        <path class="cls-2" d="M572.62,365.39l-1.93.05-.08-.59,1.17-.17v-6.12l-1.17.1-.08-.59,2.01-.52.84-.07v7.19l1.26.17-.08.59-1.93-.05ZM571.78,353.85l1.21-.08.47.08.08.94-.18.8-1.19.1-.45-.1-.1-.94.17-.8Z"/>
        <path class="cls-2" d="M579.61,364.35l2.03-6.07-.77-.17.08-.59,1.48.05,1.39-.05.08.59-1.07.17-2.75,6.89-1.22.5-2.92-7.39-1.04-.17.08-.59,1.93.05,1.76-.05.08.59-1.11.17,1.83,4.91.13,1.16Z"/>
        <path class="cls-2" d="M585.92,361.14c0,1.91,1.02,3.27,2.78,3.27.67,0,1.48-.32,2.1-.7l.27.64c-.8.55-1.86,1.02-2.93,1.32-2.03,0-3.86-1.44-3.86-4.07,0-2.48,1.49-3.81,3.79-4.31,2.21,0,2.97,1.39,2.97,3.15v.7h-5.11ZM589.29,360.31c0-1.29-.25-2.18-1.54-2.18-1.02,0-1.68.96-1.81,2.35l3.35-.17Z"/>
        <path class="cls-2" d="M594.86,359.72l1.91-2.35h1.34v1.68h-1.24c-.4.08-1.14.64-1.59,1.19l-.34.4v3.99l1.76.17-.08.64-2.43-.05-1.88.05-.08-.59,1.17-.17v-6.12l-1.17.1-.08-.59,2.01-.52.67-.05.03,2.21Z"/>
        <path class="cls-2" d="M603.52,358.48c-.17-.1-.67-.37-1.27-.37-.65,0-1.27.35-1.27.99,0,.54.42.87,1.17,1.26l1.29.65c1.12.57,1.58,1.21,1.58,2.16,0,1.51-1.22,2.08-3.15,2.5-1.02,0-2.11-.5-2.55-.75l-.32-1.89h1.07l.57,1.39c.35.23.84.42,1.38.42.89,0,1.34-.57,1.34-1.27,0-.65-.35-.94-1.22-1.39l-1.32-.69c-.72-.37-1.41-1.01-1.41-1.94,0-1.17,1.09-1.83,3.03-2.25.91,0,1.88.4,2.36.75v1.68h-.89l-.39-1.24Z"/>
        <path class="cls-2" d="M608.27,365.39l-1.93.05-.08-.59,1.17-.17v-6.12l-1.17.1-.08-.59,2.01-.52.84-.07v7.19l1.26.17-.08.59-1.93-.05ZM607.43,353.85l1.21-.08.47.08.08.94-.18.8-1.19.1-.45-.1-.1-.94.17-.8Z"/>
        <path class="cls-2" d="M610.54,358.49v-.29l.59-.59h1.09v-1.09l1.09-1.09h.44v2.3h2.53v.75h-2.52v4.91c0,.49.18,1.01.89,1.01.49,0,.86-.17,1.32-.4l.28.57-1.96,1.09c-1.88,0-2.13-.67-2.13-2.18v-5h-1.63Z"/>
        <path class="cls-2" d="M618.46,369.36v-1.68h1.44l1.66-2.53-.67.2-2.73-7.08-1.04-.17.08-.59,1.93.05,1.76-.05.08.59-1.11.17,1.78,4.91.13,1.16,2-6.07-.77-.17.08-.59,1.48.05,1.39-.05.08.59-1.07.17-2.63,6.86-1.88,4.23h-2Z"/>
        <path class="cls-2" d="M639.11,361.31c0,2.5-1.53,3.94-4.12,4.36-2.23,0-3.74-1.73-3.74-4.01,0-2.52,1.53-3.94,4.12-4.38,2.23,0,3.74,1.74,3.74,4.02ZM635.4,364.85c1.34,0,2.03-1.37,2.03-3.19,0-2.13-1.02-3.55-2.48-3.55-1.36,0-2.03,1.37-2.03,3.2s.99,3.54,2.48,3.54Z"/>
        <path class="cls-2" d="M642.98,357.71h2.1v.79h-2.1v6.19l1.93.12-.08.64-2.6-.05-1.93.05-.08-.59,1.17-.17v-6.19h-1.48v-.29l.5-.59h.97v-.17c0-1.01.32-1.66.92-2.35l1.41-1.59h2.11v1.34h-2.18l-.32.45c-.23.32-.35.8-.35,1.89v.5Z"/>
      </g>
      <g>
        <path class="cls-2" d="M568.55,382.57c0-6.62,4.63-11.13,11.4-11.13,2.87,0,5.31.76,7.5,2.38l-1.68,2.38c-1.8-1.28-3.78-1.95-5.92-1.95-4.91,0-8.32,3.38-8.32,8.32s3.42,8.32,8.32,8.32c2.13,0,4.12-.67,5.92-1.95l1.68,2.38c-2.2,1.62-4.63,2.38-7.5,2.38-6.77,0-11.4-4.51-11.4-11.13Z"/>
        <path class="cls-2" d="M593.21,393.24h-2.74v-21.34h2.74v21.34Z"/>
        <path class="cls-2" d="M611.33,385.4c.73.73,1.4,1.71,1.68,2.38l.12-.03c-.18-.82-.3-2.07-.3-3.84v-12.01h2.74v21.65h-.24l-13.02-13.81c-.7-.73-1.37-1.71-1.68-2.38l-.09.03c.18.82.27,2.07.27,3.81v12.04h-2.74v-21.65h.27l12.99,13.81Z"/>
        <path class="cls-2" d="M619.26,382.57c0-6.62,4.63-11.13,11.4-11.13,2.87,0,5.31.76,7.5,2.38l-1.68,2.38c-1.8-1.28-3.78-1.95-5.92-1.95-4.91,0-8.32,3.38-8.32,8.32s3.42,8.32,8.32,8.32c2.13,0,4.12-.67,5.92-1.95l1.68,2.38c-2.2,1.62-4.63,2.38-7.5,2.38-6.77,0-11.4-4.51-11.4-11.13Z"/>
        <path class="cls-2" d="M643.92,393.24h-2.74v-21.34h2.74v21.34Z"/>
        <path class="cls-2" d="M662.04,385.4c.73.73,1.4,1.71,1.68,2.38l.12-.03c-.18-.82-.3-2.07-.3-3.84v-12.01h2.74v21.65h-.24l-13.02-13.81c-.7-.73-1.37-1.71-1.68-2.38l-.09.03c.18.82.27,2.07.27,3.81v12.04h-2.74v-21.65h.27l12.99,13.81Z"/>
        <path class="cls-2" d="M684.45,385.4c.73.73,1.4,1.71,1.68,2.38l.12-.03c-.18-.82-.3-2.07-.3-3.84v-12.01h2.74v21.65h-.24l-13.02-13.81c-.7-.73-1.37-1.71-1.68-2.38l-.09.03c.18.82.27,2.07.27,3.81v12.04h-2.74v-21.65h.27l12.99,13.81Z"/>
        <path class="cls-2" d="M701.36,371.44h.3l9.97,21.8h-3.08l-2.65-5.98h-8.78l-2.65,5.98h-3.08l9.97-21.8ZM699.59,384.91h3.84c.95,0,1.43.03,1.71.06l.03-.03c-.24-.3-.55-.79-.95-1.74l-1.89-4.45c-.43-1.1-.7-1.95-.76-2.5h-.12c-.06.55-.34,1.4-.76,2.5l-1.89,4.45c-.4.95-.7,1.43-.95,1.74l.03.03c.27-.03.76-.06,1.71-.06Z"/>
        <path class="cls-2" d="M725.11,374.52h-5.46c-.37,0-.58,0-.79-.09l-.03.06c.06.15.09.4.09.73v18.02h-2.74v-18.02c0-.34.03-.58.09-.73l-.06-.06c-.21.09-.4.09-.76.09h-5.49v-2.62h15.15v2.62Z"/>
        <path class="cls-2" d="M730.5,393.24h-2.74v-21.34h2.74v21.34Z"/>
      </g>
      <g>
        <rect class="cls-5" x="678.44" y="311.81" width="10.25" height="2.99"/>
        <path class="cls-5" d="M670.86,340.86c0-8.16,4.77-14.76,11.82-18.46v-4.01c-10.13,3.32-17.39,11.88-17.39,22.47,0,5.24,1.37,9.33,3.74,12.99-6.26-1.1-8.96-5.47-8.96-12.99v-29.06h-11.24v2.99h5.37v26.07c0,10.44,6.81,15.87,17.17,16.04,3.96,4.41,9.57,7.48,15.94,8.39.5.07.98.13,1.38.16v-2.97c-.51-.09-.87-.17-.87-.17-9.76-2.49-16.96-10.79-16.96-21.45Z"/>
        <path class="cls-5" d="M694.56,340.86v-21.03c6.93,0,11.09,4.12,11.31,8.85l2.58.51,1.81-10.52-3.07-.6-.38,2.24c-5.54-2.79-10.18-3.29-14.8-3.29-1.13,0-2.25.07-3.34.2l.02,23.64c0,4.6-.66,7.31-3.02,10.2-2.59-2.86-3-6.1-3-10.2,0-2.19,0-12.59,0-12.59-3.44,3.32-5.58,7.45-5.58,12.59,0,10.74,8.3,19.13,18.42,19.13,3.47,0,7.48-.85,10.41-2.84l-.74-1.1c-3.95,2.01-11.96,2.48-16.86-2.1,4.14-3.05,6.23-6.96,6.23-13.1Z"/>
      </g>
    </g>
  </g>
</svg>